<?xml version="1.0" encoding="UTF-8"?>
<svg version="1.1" viewBox="0 0 2035 2048" width="657" height="661" xmlns="http://www.w3.org/2000/svg">
<path transform="translate(409)" d="m0 0h1220v2l15 1 42 9 40 12 20 7 17 7 15 7 23 11 17 10 16 10 11 8 14 10 10 8 12 11 10 8 12 11 17 17 7 9 9 11 7 8 8 11 7 10 14 22 12 21 9 19 11 28 9 27 4 14 6 24 3 15 2 8 2 27 2 8v1216l-2 9-2 29-2 10-1 7-1 1-2 14-2 5-4 17-3 9-10 29-6 16-7 16-11 22-16 26-18 27-8 11-10 11-5 7-22 22-10 8-7 7-8 7-14 11-5 4-8 6-15 10-24 14-32 16-29 12-21 7-42 12-20 4-21 3-17 2-24 1h-1176l-26-2-24-3-31-6-27-7-20-7-36-14-19-9-23-13-19-11-9-6-22-16-10-9-9-7-38-38-9-12-8-8-7-10-8-11-8-13-9-15-13-24-11-23-11-27-9-27-5-18-7-35-1-13-1-2-1-9-1-52-1-257v-874l1-18 1-50 1-13 1-3 2-17 2-9 10-39 9-26 7-16 11-25 10-18 8-14 10-15 11-15 10-12 9-11 9-10 9-11h2l1-3 8-7 9-9 8-6 12-11 24-18 15-10 17-11 22-12 15-8 13-5 10-5 24-9 24-7 20-6 18-4 13-3 10-2 18-1z" fill="#623EF1"/>
<path transform="translate(1017,209)" d="m0 0h25l35 1 21 2 29 4 43 7 36 9 41 12 32 11 35 13 33 14 16 8 23 11 19 11 11 6 18 11 32 21 34 24 14 11 14 13 9 7 13 12 9 9 10 8 11 11 8 7 10 10 7 8 9 10 7 8 8 8 10 13 11 13 12 16 16 24 19 29 13 22 13 24 21 42 11 25 10 25 9 25 9 28 9 36 13 65 3 27 3 32 1 4v116l-3 23-4 28-6 33-7 28-13 45-7 22-12 33-11 26-12 27-12 25-13 23-10 17-18 27-16 22-18 24-10 12-9 11-7 7-7 9-15 16-23 23-11 9-12 11-8 8-10 7-10 9-8 6-9 7-11 9-13 9-10 7-15 10-22 14-15 9-21 12-16 8-23 11-20 9-32 13-15 6-29 10-28 9-36 10-39 8-30 5-23 3-50 4h-84l-52-4-36-5-36-7-28-6-35-10-27-9-13-5-7 1-29 12-26 11-30 13-58 26-27 12-23 10-16 8-23 10-27 12-16 6h-5l-1-1v-22l1-11 1-3 2-25 1-2 2-23 2-15 1-15 2-14 2-21 2-24 2-12 2-22 3-27 1-5 1-25-8-8-8-7-16-15-35-35-9-11-18-20-6-8-8-10-14-19-11-16-22-33-13-22-12-22-12-23-14-30-15-37-10-28-10-34-7-31-6-32-5-40-4-51-1-33 1-29 2-22 1-25 2-10 1-18 5-32 2-14 4-20 5-23 11-44 9-29 9-25 10-24 9-20 8-16 9-19 13-23 12-20 7-11 18-27 16-22 10-13 9-11 16-20 11-12 7-9 14-15 35-35 8-7 13-11 11-10 9-7 13-11 22-16 10-7 13-9 23-15 24-14 16-9 48-24 31-13 38-15 37-12 29-8 43-10 39-7 33-5 12-1z" fill="#FEFEFE"/>
<path transform="translate(858,418)" d="m0 0h17l10 4 8 7 5 8 3 11v30l-1 90v56l1 106v295l-8 9-9 11-61 61-12 1h-144l-64 1-5 3-6 7-7 12-5 6-3 5-16 16-17 10-17 7-10 2-2 1h-37l-5-2-8-2-9-3-14-8-11-8-6-5-14-19-9-15-5-12-3-12v-36l4-15 6-15 10-16 16-17 10-8 12-7 9-4 17-4 9-2h22l17 4 17 6 19 11 19 19 9 15 4 8 2 7h199l8-5 20-20 6-9 3-6 1-68v-68l-129 1-1 69-5 8-5 5-8 7-9 3h-17l-10-6-8-8-6-13-1-130-15-15-10-8-16-15-12-12-2-1v-2l-4-2-11-9-11-11-2-1v-2l-4-2-16-14-23-23-11-9-13-12-6-7-7-12-3-7-1-7v-13l2-10 4-6 8-9 9-6 13-5h9l14 4 10 6 10 10 5 10 2 7 2 25 4 2 10 7 15 15 14 11 11 11 14 11 10 10 14 11 14 14 14 11 20 20 7 6 1 2v23h130v-348l2-6 5-8 4-5 11-7z" fill="#623EF1"/>
<path transform="translate(986,1038)" d="m0 0h400l14 7 7 7 8 16v14l-7 14-4 5-12 8-11 2h-10l-2-1-13-2-103-1h-248l-68 68-8 7-11 11-5 6-8 7-12 12-11 9-4 5-8 7-8 8-3 6-1 24v263l-4 10-6 8-10 6-9 3h-9l-12-4-9-6-6-10-3-8v-216l-34 1-6 7-5 10-7 9-4 7-11 12-9 7-11 7-7 4-18 6-2 1-15 1-4 1h-7l-3-1-14-1-19-7-12-6-10-7-10-9-10-11-12-19-8-17-3-13-1-17 1-15 4-17 4-9 8-14 7-10 21-21 19-11 9-4 9-2 2-1 26-1 22 1 9 3 16 7 10 6 11 11 6 5 7 8 7 11 6 14 2 7 35 1 1-29 33-33 7-8 11-11 4-5 8-7 10-9 5-6 22-22h2l2-4 8-7 70-70z" fill="#623EF1"/>
<path transform="translate(1267,700)" d="m0 0h14l21 3 17 5 12 5 18 10 13 11 8 6 7 7 8 11 7 10 8 15 6 18 3 11 3 18v30l-3 15-9 24-10 20-8 11-7 8-11 12-11 10-10 6-17 8-10 4-11 2-1 1-18 2-6 2h-19l-9-2-13-2-12-3-11-5-14-7-14-9-12-11-17-17-14-20-2-3-14-1h-100l-6 1h-16l-10-3-8-7-7-10-3-7-1-12 2-12 5-8 7-7 12-6 9-2 14 1 11 1h67l24-1 3-3 1-4 1-15 8-24 7-14 6-9 9-12 22-22 15-10 16-8 17-6 6-2z" fill="#623EF1"/>
<path transform="translate(1261,418)" d="m0 0h69l6 3 10 8 8 7 7 7 8 7 11 10 8 7 3 3 2 65 163 1 9 5 11 11 13 10 25 25 3 7v94l-5 9-14 15-9 11-12 13-9 9-1 89v289l-6 11-7 8-13 6-3 1h-7l-12-4-10-8-6-7-3-9-1-6v-392l4-7 6-7 7-8 13-13 7-8 6-5 5-6v-62h-174l-20-3-8-4-10-9-8-11-2-10v-77l-1-2-65-1-9-2-8-6-8-9-4-8-1-6v-14l3-8 7-8 8-7 7-3z" fill="#623EF1"/>
<path transform="translate(1135,1183)" d="m0 0h10l12 2 11 6 6 7 3 7 1 12 1 177 3 7 15 13 13 12 8 8 10 6h173l7 1 9 6 8 9 6 12v16l-8 16-10 7-12 4-6 1h-186l-14-7-11-9-36-36-8-7-10-9-8-9-9-11-1-2v-170h-72l-9 7-11 9-1 19v254l-5 12-9 8-13 6-8 1-11-4-8-6-5-4-6-10-3-12v-285l6-12 4-5h2l2-4 35-35 9-7z" fill="#623EF1"/>
<path transform="translate(1058,428)" d="m0 0h23l21 5 13 5 16 10 23 23 10 17 6 18 4 23v21l-5 17-5 12-10 16-8 11-9 9-14 10-16 8-1 6v83l-3 9-7 11-5 4-9 6-3 1h-16l-10-4-8-6-8-16-2-8-1-84-6-1-17-9-12-9-5-4-13-17-11-19-4-11-1-7-2-6v-21l1-13 6-20 8-16 7-10 8-10 5-6 11-8 11-7 12-6 11-4z" fill="#623EF1"/>
<path transform="translate(1295,1184)" d="m0 0h141l7 7 12 9 12 11 31 31 1 2 1 53 13 13 5 2 7 7 10 6 6-1 12-7 7-7 1-51 4-10 10-10 9-5 5-1h17l12 4 6 4 7 7 4 8v66l-8 11-7 7-9 11-9 10-9 9-7 8-10 9-2 1h-72l-11-7-15-14-30-30-7-8-6-7-2-5-1-42-9-10-12-12-5-1h-62l-1 1-1 86-3 9-4 6-5 6-10 6-8 3h-12l-9-4-9-6-6-9-4-11v-134l4-8 4-5 12-6z" fill="#623EF1"/>
<path transform="translate(1262,766)" d="m0 0h17l16 4 12 5 10 7 13 12 7 8 8 16 2 5 3 19v9l-4 16-5 12-6 9-9 9-1 2h-2l-1 3-9 6-10 6-12 4-7 1-1 1h-23l-15-4-12-5-8-6-19-19-8-16-3-10-1-7v-15l2-14 4-10 6-12 8-11 8-8 11-7 10-5 10-3z" fill="#FEFEFE"/>
<path transform="translate(417,818)" d="m0 0h104l8 4 5 4 9 12 2 5v23l-4 10-6 7-8 5-16 4h-23l-61-1-14-2-12-6-7-9-5-12-2-10 3-12 6-10 7-6 10-5z" fill="#623EF1"/>
<path transform="translate(693,468)" d="m0 0h21l15 6 10 9 6 8 5 11 2 7v15l-5 13-5 8-9 9-10 6-11 4h-14l-13-4-9-6-10-10-6-10-3-9v-19l4-12 6-10 5-5 5-4 13-6z" fill="#623EF1"/>
<path transform="translate(648,1248)" d="m0 0h7l14 4 10 6 5 4 4 6 5 8 1 3v22l-4 9-9 10-6 4-18 5h-9l-13-5-8-6-8-8-4-8-2-7v-12l5-13 6-9 10-7z" fill="#FEFEFE"/>
<path transform="translate(1064,495)" d="m0 0 14 1 12 6 11 9 6 9 2 5v22l-8 14-8 7-10 5-6 1h-11l-13-2-10-5-9-9-5-11-1-5v-16l7-14 8-8 10-6z" fill="#FEFEFE"/>
<path transform="translate(487,1034)" d="m0 0h18l9 3 9 7 8 8 5 10 1 6v13l-2 8-6 10-11 9-9 4h-17l-11-3-11-8-8-11-4-15 1-9 4-11 4-6 11-11z" fill="#FEFEFE"/>
</svg>
