<?xml version="1.0" encoding="UTF-8"?>
<svg version="1.1" viewBox="0 0 2035 2048" width="657" height="661" xmlns="http://www.w3.org/2000/svg">
<path transform="translate(409)" d="m0 0h1220v2l15 1 42 9 40 12 20 7 17 7 15 7 23 11 17 10 16 10 11 8 14 10 10 8 12 11 10 8 12 11 17 17 7 9 9 11 7 8 8 11 7 10 14 22 12 21 9 19 11 28 9 27 4 14 6 24 3 15 2 8 2 27 2 8v1216l-2 9-2 29-2 10-1 7-1 1-2 14-2 5-4 17-3 9-10 29-6 16-7 16-11 22-16 26-18 27-8 11-10 11-5 7-22 22-10 8-7 7-8 7-14 11-5 4-8 6-15 10-24 14-32 16-29 12-21 7-42 12-20 4-21 3-17 2-24 1h-1176l-26-2-24-3-31-6-27-7-20-7-36-14-19-9-23-13-19-11-9-6-22-16-10-9-9-7-38-38-9-12-8-8-7-10-8-11-8-13-9-15-13-24-11-23-11-27-9-27-5-18-7-35-1-13-1-2-1-9-1-52-1-257v-874l1-18 1-50 1-13 1-3 2-17 2-9 10-39 9-26 7-16 11-25 10-18 8-14 10-15 11-15 10-12 9-11 9-10 9-11h2l1-3 8-7 9-9 8-6 12-11 24-18 15-10 17-11 22-12 15-8 13-5 10-5 24-9 24-7 20-6 18-4 13-3 10-2 18-1z" fill="#623DEF"/>
<path transform="translate(1e3 209)" d="m0 0h48l27 1 37 4 55 9 36 9 48 14 34 12 34 13 25 11 22 10 16 8 22 12 17 10 19 12 30 20 20 14 13 10 11 9 11 10 11 9 12 11 10 9 15 14 33 33 7 8 9 10 13 15 13 16 14 19 10 15 23 35 16 27 14 27 16 32 15 34 12 31 13 40 9 36 13 65 4 36 1 20 2 7v115l-6 46-7 38-7 29-10 35-11 35-11 30-13 31-11 24-15 30-12 21-13 21-11 16-20 28-10 13-8 11h-2l-2 4-8 10-11 12-9 11-43 43-8 7-12 11-12 10-11 9-10 8-18 14-18 13-33 22-23 14-24 14-25 12-33 15-27 11-35 13-46 15-37 10-40 8-31 5-27 3-32 2-6 1h-85l-24-2-28-2-30-4-48-9-37-9-39-12-19-8-5-1-11 5-29 12-54 23-35 16-32 14-37 17-18 8-31 14-23 10-9 3h-6l-1-2 1-17 2-20 4-34 2-20 6-59 8-73 3-30v-12l-10-10-8-7-15-14-34-34-9-11-14-15-11-14-14-18-13-19-8-11-8-12-12-19-9-15-12-21-14-27-11-23-16-38-10-28-9-28-8-32-7-34-5-34-3-29-2-30-1-11v-53l4-59 4-34 5-35 7-35 12-48 8-27 9-26 11-27 9-20 16-33 13-24 15-25 26-39 13-18 11-14 13-16 10-13 1-2h2l2-4 11-12 9-11 47-47 11-9 10-9 13-11 28-22 18-13 19-13 19-12 25-15 21-12 36-18 40-17 39-15 37-12 38-10 36-8 40-7 28-4 15-1z" fill="#0F0E0E"/>
<path transform="translate(859,418)" d="m0 0h17l7 3 8 6 4 5 4 9 2 10v572l-7 10-9 10-17 17-1 2h-2l-1 3-5 4-1 2h-2l-2 4-9 9-7 8-4 2-2 4-8 8-2 1-182 1-41 1-6 8-9 14-4 5-7 9-12 12-17 10-18 7-13 3-9 1h-16l-14-2-17-6-17-9-10-8-9-9-12-17-9-16-5-16-2-10v-24l3-14 4-13 8-16 6-9 14-15 9-8 16-9 8-4 10-3 13-2 2-1h24l15 3 20 8 16 10 12 11 9 10 8 13 4 8 2 7h198l8-4 20-20 9-14 1-3 1-135h-129l-1 69-5 9-11 11-11 4h-16l-10-5-9-9-4-8-2-7-1-128-15-15-10-8-10-10-8-7-9-9-11-9-14-13-8-7-10-9-8-7-16-16-8-7-14-13-8-7-10-12-5-10-3-10v-17l2-8 4-6 8-9 11-7 8-3 11-1 13 3 12 7 9 9 6 10 2 8 1 15 1 8 13 11 8 7 7 7 11 9 12 11 10 9 11 9 14 13 9 7 8 8 2 1v2l4 2 11 10 8 7 20 20v23h130v-349l6-12 9-9 7-4z" fill="#623DEF"/>
<path transform="translate(987,1038)" d="m0 0h398l10 4 9 7 6 7 5 11v14l-5 12-9 10-9 6-10 2h-12l-9-2-11-1-186-1h-159l-10 9-101 101-8 7-10 9-5 4-7 8-3 4-2 6-1 286-6 12-7 7-12 6-3 1h-10l-10-3-10-6-7-10-3-10-1-214h-33l-6 7-5 10-6 8-7 10-11 12-14 10-19 9-13 4-16 2h-12l-17-3-14-5-19-10-11-9-11-11-9-13-8-14-7-17-3-14v-22l4-19 4-10 8-15 8-11 13-14 11-9 15-9 10-4 12-3 23-2 24 2 19 7 12 7 9 7 11 10 7 8 6 9 8 16 3 7 9 1h25l1-28 27-27 7-8 13-13 6-7 8-7 54-54 8-7 16-16 4-5 8-7 4-5 8-7 18-18 12-8z" fill="#623DEF"/>
<path transform="translate(1264,700)" d="m0 0h18l22 3 18 6 16 8 15 9 10 9 8 7 7 7 8 10 8 13 8 16 7 22 4 29v12l-2 13-4 17-6 15-9 19-11 16-12 14-12 12-14 9-14 7-17 6-13 3-12 1-8 2h-18l-23-4-18-6-16-8-16-10-12-11-8-7-9-10-10-14-7-10h-114l-2 1-16 1-10-3-9-6-7-9-5-10-1-5v-9l2-10 6-9 8-7 9-5 12-3 23 3h68l25-2 2-10 1-12 7-21 8-16 7-11 12-15h2l2-4 12-11 14-10 16-9 15-6 14-4z" fill="#623DEF"/>
<path transform="translate(1258,418)" d="m0 0h71l7 3 12 10 8 7 10 9 13 12 9 8v2h2l2 4 1 62 163 1 8 5 10 9 15 13 6 5v2l4 2 12 12v2h2l3 4 1 6v92l-6 10-13 14-9 11-18 18-3 5v360l-1 15-7 14-6 7-12 6-4 1h-8l-13-5-9-8-6-9-3-10v-395l6-8 9-11 31-31 2-3v-62h-174l-16-2-9-3-8-6-7-7-6-10-2-6-1-82h-64l-11-3-10-9-4-5-5-10-1-4v-15l4-10 11-11 10-5z" fill="#623DEF"/>
<path transform="translate(1016,1183)" d="m0 0h130l9 1 11 6 5 5 6 9 1 5 1 23v164l2 4 2 1v2l4 2 13 12 12 11 10 9 7 3h174l9 4 8 6 6 8 4 8 1 3v15l-7 14-7 7-12 5-10 2h-185l-9-3-12-9-10-9-27-27-8-7-16-15-12-14-4-5-1-171-73 1-13 11-5 5-1 271-5 12-7 8-12 6-3 1h-12l-14-7-7-7-5-8-3-15v-282l4-10 8-10 38-38 8-6z" fill="#623DEF"/>
<path transform="translate(1058,428)" d="m0 0h23l25 6 17 9 12 9 17 17 9 14 6 13 4 13 3 17v23l-6 21-8 16-7 10-9 12-8 8-13 9-16 9-1 90-7 14-6 7-6 4-8 4h-17l-12-6-7-8-5-8-3-13v-82l-10-3-16-9-11-9-8-8-9-12-10-17-4-9-4-16v-29l3-14 7-18 7-14 8-10 7-8 9-8 11-8 17-9 11-4z" fill="#623DEF"/>
<path transform="translate(1299,1183)" d="m0 0h128l10 2 11 10 10 8 17 17 6 5v2l3 1v2l3 1v2l3 1v2l3 1 3 3v2l3 1 1 54 12 12 11 8 11 7 5 1 11-6 9-8 2-5v-49l5-9 5-6 11-7 7-2h19l10 4 10 7 6 9 2 9v57l-4 7-6 8-7 7-7 9-12 13-12 12-7 8-6 5-51 1h-20l-9-5-13-12-10-10-8-7-27-27-6-10-1-41-4-7-17-17-69-1v87l-5 12-7 8-8 6-10 4h-11l-11-4-7-5v-2h-2l-6-10-3-8v-135l6-10 6-5 12-6z" fill="#623DEF"/>
<path transform="translate(1719,1548)" d="m0 0h15l10 3 10 6 8 11 4 9 2 11v11l-3 18-10 30-11 21-9 12-9 11-9 10-10 9-18 13-18 10-15 6-17 5-12 2h-15l-10-3-11-8-8-10-3-8v-23l4-11 6-8 8-7 10-5 12-3 21-5 9-5 16-15 8-10 7-14 3-14 1-19 4-10 8-10 8-6 9-3z" fill="#0F0E0E"/>
<path transform="translate(401,269)" d="m0 0h20l12 4 11 7 8 11 4 10v17l-4 10-7 10-13 8-10 4-14 2-12 4-11 6-8 7h-2l-1 3h-2l-1 3-5 4-9 14-6 13-3 10-1 16-4 11-4 5-3 5-9 7-8 4-3 1h-21l-10-4-9-8-7-9-3-7v-28l6-23 8-20 10-19 12-17 7-8 6-7 6-4 7-7 20-14 19-10 20-7z" fill="#1D182A"/>
<path transform="translate(1618,269)" d="m0 0h12l16 4 16 7 19 10 15 10 10 8 10 9 9 9 13 18 10 17 10 23 7 23 3 17-2 16-3 8-6 8-11 7-13 5h-11l-12-4-10-6-8-10-5-8-2-5-1-16-6-18-7-13-8-11-9-9-15-10-8-3-21-5-12-6-9-8-6-10-2-10v-12l2-9 5-9 8-8 8-5z" fill="#0F0E0E"/>
<path transform="translate(1263,766)" d="m0 0h16l19 5 17 9 13 12 8 9 8 14 3 9 3 18-1 13-4 15-7 14-12 14-11 9-12 7-21 6h-20l-17-4-12-5-11-8-11-11-9-13-5-11-3-16v-15l3-15 5-13 9-14 9-10 10-7 14-7z" fill="#0F0E0E"/>
<path transform="translate(295,1548)" d="m0 0h18l10 3 9 6 8 9 5 10 2 7 1 25 9 19 10 14 8 9 6 9v8l-2 11-1 22-2 18-1 26-6-1-12-6-15-10-11-9-10-9-11-11-11-14-8-11-10-17-6-14-6-19-4-20v-20l2-10 4-9 6-7 9-6z" fill="#0F0E0E"/>
<path transform="translate(416,818)" d="m0 0h105l10 6 8 8 6 11 1 8v11l-3 10-4 6-7 7-8 4-7 2h-98l-13-5-8-7-6-9-4-12v-11l3-9 7-10 11-7z" fill="#623DEF"/>
<path transform="translate(692,468)" d="m0 0h23l10 4 11 8 8 9 6 12 2 7v15l-4 12-6 10-10 10-16 8-4 1h-15l-12-4-9-6-11-11-6-11-3-10 1-16 4-12 6-10 7-7 15-8z" fill="#623DEF"/>
<path transform="translate(644,1249)" d="m0 0h16l13 5 11 8 7 10 3 7v22l-5 10-8 9-12 6-14 3-10-1-12-5-10-9-6-8-3-7-1-5v-9l5-15 6-9 13-9z" fill="#0F0E0E"/>
<path transform="translate(1060,496)" d="m0 0h17l10 4 12 9 6 8 4 9 1 4v9l-2 10-6 10-4 5-11 7-4 2h-26l-10-4-8-6-6-7-4-9-1-5v-14l4-12 7-9 12-8z" fill="#0F0E0F"/>
<path transform="translate(487,1034)" d="m0 0h17l8 2 9 6 9 9 5 8 2 9v13l-3 10-6 9-9 7-9 4-3 1h-14l-13-4-10-7-8-11-3-12v-11l4-13 6-8 9-8z" fill="#0F0E0F"/>
<path transform="translate(401,269)" d="m0 0h20l12 4 11 7 8 11 4 10v17l-4 10-7 10-13 8-7 3h-9l5-5 5-2 8-3 8-6h2l5-15v-10l-3-10-6-8-9-7-1-2-9-4-5-1h-8l-23 6-4 2h-3l-2 4-10 4-22 12-15 11-6 3-8 10-1 2h-2v2h-2l-2 5-7 10-3 3-2 3-3 4-6 15-8 16-2 5-2 6-3 2 1 5-1 1-1 14 2 14 12 14 5 4v2l5 2 4 2 11 1 10-3 6-3 5-5 4-7 4-16 3-9 4-1v18l-3 9-4 5-3 5-9 7-8 4-3 1h-21l-10-4-9-8-7-9-3-7v-28l6-23 8-20 10-19 12-17 7-8 6-7 6-4 7-7 20-14 19-10 20-7z" fill="#100F11"/>
<path transform="translate(767,1098)" d="m0 0h41l12 1 2 3v2l3 1-3 2-182 1h-41l4-6v-2l8-1z" fill="#5632D5"/>
<path transform="translate(899,444)" d="m0 0h1l1 7v572l-3-4-2-1v-11l1-6v-12l-1-25 1-17 1-28 1-66-1-191v-170z" fill="#5632D5"/>
<path transform="translate(1077,895)" d="m0 0h29l19 3 1 3 17 2-1 2-114-1v-1l18-2 11-3 13-2z" fill="#5632D5"/>
<path transform="translate(987,1038)" d="m0 0h398l4 2h-19l-58 1-325-2z" fill="#5632D5"/>
<path transform="translate(406,348)" d="m0 0 5 1-4 2-9 2v2l-13 7-8 7h-2l-1 3h-2l-1 3-5 4-9 14-6 13-1 4-4 1-2-3 2-8 8-16 8-10 3-3h2l2-4 12-9h2v-2h2v-2l10-4 8-1z" fill="#100F11"/>
<path transform="translate(596,1038)" d="m0 0h198v1l-31 1-16 1h-148z" fill="#5632D5"/>
<path transform="translate(1319,1103)" d="m0 0 33 1 2 2 5 1v1l-195-1-1-2h98z" fill="#5632D5"/>
<path transform="translate(441,886)" d="m0 0h59l9 2h15l-3 2-4 1h-98v-1l16-1v-2z" fill="#5632D5"/>
<path transform="translate(1381,1440)" d="m0 0h22l3 2-98 2h-16l-31-1h-27l-5-1v-1z" fill="#5632D5"/>
<path transform="translate(1339,1251)" d="m0 0h70v1h-69v87l-2 3-1-7v-48l1-31z" fill="#5632D5"/>
<path transform="translate(1015,831)" d="m0 0 23 3h85v1l-15 1-4 1-17 1h-41l-21-3-13-2z" fill="#5632D5"/>
<path transform="translate(1614,589)" d="m0 0 2 1 1 6v92h-1l-2-42z" fill="#5632D5"/>
<path transform="translate(1274,487)" d="m0 0h16l9 1 24 1-4 2h-59l-4-2h10z" fill="#5632D5"/>
<path transform="translate(1634,1256)" d="m0 0h1l1 6v57l-2-3-2-11z" fill="#5632D5"/>
<path transform="translate(1264,700)" d="m0 0h18l22 3 3 2-10 1-13-1-4-1h-15l-8-2v-1z" fill="#5632D5"/>
<path transform="translate(416,818)" d="m0 0h105v1l-88 1-17 1-4-1z" fill="#5632D5"/>
<path transform="translate(507,577)" d="m0 0 10 1 9 3-3 1-13 1-7 1-13-1 4-3 6-2z" fill="#5632D5"/>
<path transform="translate(1258,418)" d="m0 0h71v1l-70 2-5-1z" fill="#5632D5"/>
<path transform="translate(425,348)" d="m0 0 3 1-10 4-13 1-1 2-9 2-3 2-3-1 12-6 12-3z" fill="#5632D5"/>
<path transform="translate(1883,116)" d="m0 0 5 2 16 15v3l-11-10-8-7z" fill="#5B38DB"/>
<path transform="translate(382,363)" d="m0 0 2 1-21 21v-3l6-7 5-4 5-5z" fill="#5A36DE"/>
<path transform="translate(112,1886)" d="m0 0 7 6 5 6h-3l-7-7z" fill="#5935DC"/>
<path transform="translate(228,1980)" d="m0 0 5 2 9 5-1 2-13-7z" fill="#5935DC"/>
</svg>
